<svg id="Layer_1" data-name="Layer 1" xmlns="http://www.w3.org/2000/svg" viewBox="0 0 1285 490"><defs><style>.cls-1,.cls-2,.cls-3,.cls-5,.cls-7{fill:none;stroke-miterlimit:10;}.cls-1{stroke:#293649;}.cls-1,.cls-2,.cls-3,.cls-7{stroke-width:2px;}.cls-2{stroke:#2aca4b;}.cls-3{stroke:#f9a5e4;}.cls-4{fill:#f9a5e4;}.cls-5{stroke:#da514a;stroke-width:3px;}.cls-6{fill:#007cff;}.cls-7{stroke:#fff;}</style></defs><title>bg-landing-page</title><polygon class="cls-1" points="281.66 105.73 272.47 89.73 281.66 73.73 300.03 73.73 309.22 89.73 300.03 105.73 281.66 105.73"/><polygon class="cls-1" points="281.66 137.73 272.47 121.73 281.66 105.73 300.03 105.73 309.22 121.73 300.03 137.73 281.66 137.73"/><polygon class="cls-1" points="309.24 121.73 300.06 105.73 309.24 89.73 327.62 89.73 336.8 105.73 327.62 121.73 309.24 121.73"/><polygon class="cls-1" points="309.24 153.73 300.06 137.73 309.24 121.73 327.62 121.73 336.8 137.73 327.62 153.73 309.24 153.73"/><polygon class="cls-1" points="254.07 153.73 244.89 137.73 254.07 121.73 272.45 121.73 281.63 137.73 272.45 153.73 254.07 153.73"/><polygon class="cls-1" points="254.07 185.73 244.89 169.73 254.07 153.73 272.45 153.73 281.63 169.73 272.45 185.73 254.07 185.73"/><polygon class="cls-1" points="281.66 169.73 272.47 153.73 281.66 137.73 300.03 137.73 309.22 153.73 300.03 169.73 281.66 169.73"/><polygon class="cls-1" points="281.66 201.73 272.47 185.73 281.66 169.73 300.03 169.73 309.22 185.73 300.03 201.73 281.66 201.73"/><polygon class="cls-1" points="336.83 137.73 327.64 121.73 336.83 105.73 355.2 105.73 364.39 121.73 355.2 137.73 336.83 137.73"/><polygon class="cls-1" points="336.83 169.73 327.64 153.73 336.83 137.73 355.2 137.73 364.39 153.73 355.2 169.73 336.83 169.73"/><polygon class="cls-1" points="364.41 153.73 355.23 137.73 364.41 121.73 382.79 121.73 391.97 137.73 382.79 153.73 364.41 153.73"/><polygon class="cls-1" points="364.41 185.73 355.23 169.73 364.41 153.73 382.79 153.73 391.97 169.73 382.79 185.73 364.41 185.73"/><polygon class="cls-1" points="309.24 185.73 300.06 169.73 309.24 153.73 327.62 153.73 336.8 169.73 327.62 185.73 309.24 185.73"/><polygon class="cls-1" points="309.24 217.73 300.06 201.73 309.24 185.73 327.62 185.73 336.8 201.73 327.62 217.73 309.24 217.73"/><polygon class="cls-1" points="336.83 201.73 327.64 185.73 336.83 169.73 355.2 169.73 364.39 185.73 355.2 201.73 336.83 201.73"/><polygon class="cls-1" points="419.58 121.73 410.39 105.73 419.58 89.73 437.95 89.73 447.14 105.73 437.95 121.73 419.58 121.73"/><polygon class="cls-1" points="419.58 153.73 410.39 137.73 419.58 121.73 437.95 121.73 447.14 137.73 437.95 153.73 419.58 153.73"/><polygon class="cls-1" points="447.17 137.73 437.98 121.73 447.17 105.73 465.54 105.73 474.73 121.73 465.54 137.73 447.17 137.73"/><polygon class="cls-1" points="447.17 169.73 437.98 153.73 447.17 137.73 465.54 137.73 474.73 153.73 465.54 169.73 447.17 169.73"/><polygon class="cls-1" points="392 169.73 382.81 153.73 392 137.73 410.37 137.73 419.56 153.73 410.37 169.73 392 169.73"/><polygon class="cls-1" points="392 201.73 382.81 185.73 392 169.73 410.37 169.73 419.56 185.73 410.37 201.73 392 201.73"/><polygon class="cls-1" points="419.58 185.73 410.39 169.73 419.58 153.73 437.95 153.73 447.14 169.73 437.95 185.73 419.58 185.73"/><polygon class="cls-1" points="419.58 217.73 410.39 201.73 419.58 185.73 437.95 185.73 447.14 201.73 437.95 217.73 419.58 217.73"/><polygon class="cls-1" points="474.75 153.73 465.56 137.73 474.75 121.73 493.12 121.73 502.31 137.73 493.12 153.73 474.75 153.73"/><polygon class="cls-1" points="474.75 185.73 465.56 169.73 474.75 153.73 493.12 153.73 502.31 169.73 493.12 185.73 474.75 185.73"/><polygon class="cls-1" points="502.33 169.73 493.15 153.73 502.33 137.73 520.71 137.73 529.89 153.73 520.71 169.73 502.33 169.73"/><polygon class="cls-1" points="502.33 201.73 493.15 185.73 502.33 169.73 520.71 169.73 529.89 185.73 520.71 201.73 502.33 201.73"/><polygon class="cls-1" points="447.17 201.73 437.98 185.73 447.17 169.73 465.54 169.73 474.73 185.73 465.54 201.73 447.17 201.73"/><polygon class="cls-1" points="447.17 233.73 437.98 217.73 447.17 201.73 465.54 201.73 474.73 217.73 465.54 233.73 447.17 233.73"/><polygon class="cls-1" points="474.75 217.73 465.56 201.73 474.75 185.73 493.12 185.73 502.31 201.73 493.12 217.73 474.75 217.73"/><polygon class="cls-1" points="474.75 249.73 465.56 233.73 474.75 217.73 493.12 217.73 502.31 233.73 493.12 249.73 474.75 249.73"/><polygon class="cls-1" points="392 105.73 382.81 89.73 392 73.73 410.37 73.73 419.56 89.73 410.37 105.73 392 105.73"/><polygon class="cls-1" points="364.41 121.73 355.23 105.73 364.41 89.73 382.79 89.73 391.97 105.73 382.79 121.73 364.41 121.73"/><polygon class="cls-1" points="392 137.73 382.81 121.73 392 105.73 410.37 105.73 419.56 121.73 410.37 137.73 392 137.73"/><polygon class="cls-1" points="364.41 217.73 355.23 201.73 364.41 185.73 382.79 185.73 391.97 201.73 382.79 217.73 364.41 217.73"/><polygon class="cls-1" points="392 233.73 382.81 217.73 392 201.73 410.37 201.73 419.56 217.73 410.37 233.73 392 233.73"/><polygon class="cls-2" points="309.24 313.73 300.06 297.73 309.24 281.73 327.62 281.73 336.8 297.73 327.62 313.73 309.24 313.73"/><polygon class="cls-3" points="875.23 144.58 866.05 128.58 875.23 112.58 893.61 112.58 902.79 128.58 893.61 144.58 875.23 144.58"/><polygon class="cls-3" points="875.23 176.58 866.05 160.58 875.23 144.58 893.61 144.58 902.79 160.58 893.61 176.58 875.23 176.58"/><polygon class="cls-3" points="902.82 160.58 893.63 144.58 902.82 128.58 921.19 128.58 930.38 144.58 921.19 160.58 902.82 160.58"/><polygon class="cls-3" points="902.82 192.58 893.63 176.58 902.82 160.58 921.19 160.58 930.38 176.58 921.19 192.58 902.82 192.58"/><polygon class="cls-3" points="847.65 192.58 838.46 176.58 847.65 160.58 866.02 160.58 875.21 176.58 866.02 192.58 847.65 192.58"/><polygon class="cls-3" points="847.65 224.58 838.46 208.58 847.65 192.58 866.02 192.58 875.21 208.58 866.02 224.58 847.65 224.58"/><polygon class="cls-3" points="875.23 208.58 866.05 192.58 875.23 176.58 893.61 176.58 902.79 192.58 893.61 208.58 875.23 208.58"/><polygon class="cls-3" points="875.23 240.58 866.05 224.58 875.23 208.58 893.61 208.58 902.79 224.58 893.61 240.58 875.23 240.58"/><polygon class="cls-3" points="930.4 176.58 921.22 160.58 930.4 144.58 948.78 144.58 957.96 160.58 948.78 176.58 930.4 176.58"/><polygon class="cls-3" points="930.4 208.58 921.22 192.58 930.4 176.58 948.78 176.58 957.96 192.58 948.78 208.58 930.4 208.58"/><polygon class="cls-3" points="957.99 192.58 948.8 176.58 957.99 160.58 976.36 160.58 985.55 176.58 976.36 192.58 957.99 192.58"/><polygon class="cls-3" points="957.99 224.58 948.8 208.58 957.99 192.58 976.36 192.58 985.55 208.58 976.36 224.58 957.99 224.58"/><polygon class="cls-3" points="902.82 224.58 893.63 208.58 902.82 192.58 921.19 192.58 930.38 208.58 921.19 224.58 902.82 224.58"/><polygon class="cls-3" points="902.82 256.58 893.63 240.58 902.82 224.58 921.19 224.58 930.38 240.58 921.19 256.58 902.82 256.58"/><polygon class="cls-3" points="930.4 240.58 921.22 224.58 930.4 208.58 948.78 208.58 957.96 224.58 948.78 240.58 930.4 240.58"/><polygon class="cls-3" points="930.4 272.58 921.22 256.58 930.4 240.58 948.78 240.58 957.96 256.58 948.78 272.58 930.4 272.58"/><polygon class="cls-3" points="1013.16 160.58 1003.97 144.58 1013.16 128.58 1031.53 128.58 1040.72 144.58 1031.53 160.58 1013.16 160.58"/><polygon class="cls-3" points="1013.16 192.58 1003.97 176.58 1013.16 160.58 1031.53 160.58 1040.72 176.58 1031.53 192.58 1013.16 192.58"/><polygon class="cls-3" points="1040.74 176.58 1031.56 160.58 1040.74 144.58 1059.12 144.58 1068.3 160.58 1059.12 176.58 1040.74 176.58"/><polygon class="cls-3" points="1040.74 208.58 1031.56 192.58 1040.74 176.58 1059.12 176.58 1068.3 192.58 1059.12 208.58 1040.74 208.58"/><polygon class="cls-3" points="985.57 208.58 976.39 192.58 985.57 176.58 1003.95 176.58 1013.13 192.58 1003.95 208.58 985.57 208.58"/><polygon class="cls-3" points="985.57 240.58 976.39 224.58 985.57 208.58 1003.95 208.58 1013.13 224.58 1003.95 240.58 985.57 240.58"/><polygon class="cls-3" points="1013.16 224.58 1003.97 208.58 1013.16 192.58 1031.53 192.58 1040.72 208.58 1031.53 224.58 1013.16 224.58"/><polygon class="cls-3" points="1013.16 256.58 1003.97 240.58 1013.16 224.58 1031.53 224.58 1040.72 240.58 1031.53 256.58 1013.16 256.58"/><polygon class="cls-3" points="1068.33 192.58 1059.14 176.58 1068.33 160.58 1086.7 160.58 1095.89 176.58 1086.7 192.58 1068.33 192.58"/><polygon class="cls-3" points="1068.33 224.58 1059.14 208.58 1068.33 192.58 1086.7 192.58 1095.89 208.58 1086.7 224.58 1068.33 224.58"/><polygon class="cls-3" points="1095.91 208.58 1086.73 192.58 1095.91 176.58 1114.29 176.58 1123.47 192.58 1114.29 208.58 1095.91 208.58"/><polygon class="cls-3" points="1095.91 240.58 1086.73 224.58 1095.91 208.58 1114.29 208.58 1123.47 224.58 1114.29 240.58 1095.91 240.58"/><polygon class="cls-3" points="1040.74 240.58 1031.56 224.58 1040.74 208.58 1059.12 208.58 1068.3 224.58 1059.12 240.58 1040.74 240.58"/><polygon class="cls-3" points="1040.74 272.58 1031.56 256.58 1040.74 240.58 1059.12 240.58 1068.3 256.58 1059.12 272.58 1040.74 272.58"/><polygon class="cls-3" points="1068.33 256.58 1059.14 240.58 1068.33 224.58 1086.7 224.58 1095.89 240.58 1086.7 256.58 1068.33 256.58"/><polygon class="cls-3" points="1068.33 288.58 1059.14 272.58 1068.33 256.58 1086.7 256.58 1095.89 272.58 1086.7 288.58 1068.33 288.58"/><polygon class="cls-3" points="985.57 144.58 976.39 128.58 985.57 112.58 1003.95 112.58 1013.13 128.58 1003.95 144.58 985.57 144.58"/><polygon class="cls-3" points="957.99 160.58 948.8 144.58 957.99 128.58 976.36 128.58 985.55 144.58 976.36 160.58 957.99 160.58"/><polygon class="cls-3" points="985.57 176.58 976.39 160.58 985.57 144.58 1003.95 144.58 1013.13 160.58 1003.95 176.58 985.57 176.58"/><polygon class="cls-3" points="957.99 256.58 948.8 240.58 957.99 224.58 976.36 224.58 985.55 240.58 976.36 256.58 957.99 256.58"/><polygon class="cls-3" points="957.99 288.58 948.8 272.58 957.99 256.58 976.36 256.58 985.55 272.58 976.36 288.58 957.99 288.58"/><polygon class="cls-4" points="985.57 272.58 976.39 256.58 985.57 240.58 1003.95 240.58 1013.13 256.58 1003.95 272.58 985.57 272.58"/><polygon class="cls-3" points="875.23 272.58 866.05 256.58 875.23 240.58 893.61 240.58 902.79 256.58 893.61 272.58 875.23 272.58"/><polygon class="cls-3" points="902.82 288.58 893.63 272.58 902.82 256.58 921.19 256.58 930.38 272.58 921.19 288.58 902.82 288.58"/><polygon class="cls-2" points="226.49 233.73 217.3 217.73 226.49 201.73 244.86 201.73 254.05 217.73 244.86 233.73 226.49 233.73"/><polygon class="cls-2" points="226.49 265.73 217.3 249.73 226.49 233.73 244.86 233.73 254.05 249.73 244.86 265.73 226.49 265.73"/><polygon class="cls-2" points="254.07 249.73 244.89 233.73 254.07 217.73 272.45 217.73 281.63 233.73 272.45 249.73 254.07 249.73"/><polygon class="cls-2" points="254.07 281.73 244.89 265.73 254.07 249.73 272.45 249.73 281.63 265.73 272.45 281.73 254.07 281.73"/><polygon class="cls-2" points="198.9 281.73 189.72 265.73 198.9 249.73 217.28 249.73 226.46 265.73 217.28 281.73 198.9 281.73"/><polygon class="cls-2" points="198.9 313.73 189.72 297.73 198.9 281.73 217.28 281.73 226.46 297.73 217.28 313.73 198.9 313.73"/><polygon class="cls-2" points="226.49 329.73 217.3 313.73 226.49 297.73 244.86 297.73 254.05 313.73 244.86 329.73 226.49 329.73"/><polygon class="cls-2" points="281.66 265.73 272.47 249.73 281.66 233.73 300.03 233.73 309.22 249.73 300.03 265.73 281.66 265.73"/><polygon class="cls-2" points="281.66 297.73 272.47 281.73 281.66 265.73 300.03 265.73 309.22 281.73 300.03 297.73 281.66 297.73"/><polygon class="cls-2" points="309.24 281.73 300.06 265.73 309.24 249.73 327.62 249.73 336.8 265.73 327.62 281.73 309.24 281.73"/><polygon class="cls-2" points="254.07 345.73 244.89 329.73 254.07 313.73 272.45 313.73 281.63 329.73 272.45 345.73 254.07 345.73"/><polygon class="cls-2" points="281.66 329.73 272.47 313.73 281.66 297.73 300.03 297.73 309.22 313.73 300.03 329.73 281.66 329.73"/><polygon class="cls-2" points="364.41 249.73 355.23 233.73 364.41 217.73 382.79 217.73 391.97 233.73 382.79 249.73 364.41 249.73"/><polygon class="cls-2" points="392 265.73 382.81 249.73 392 233.73 410.37 233.73 419.56 249.73 410.37 265.73 392 265.73"/><polygon class="cls-2" points="392 297.73 382.81 281.73 392 265.73 410.37 265.73 419.56 281.73 410.37 297.73 392 297.73"/><polygon class="cls-2" points="336.83 329.73 327.64 313.73 336.83 297.73 355.2 297.73 364.39 313.73 355.2 329.73 336.83 329.73"/><polygon class="cls-2" points="364.41 313.73 355.23 297.73 364.41 281.73 382.79 281.73 391.97 297.73 382.79 313.73 364.41 313.73"/><polygon class="cls-2" points="364.41 345.73 355.23 329.73 364.41 313.73 382.79 313.73 391.97 329.73 382.79 345.73 364.41 345.73"/><polygon class="cls-2" points="419.58 281.73 410.39 265.73 419.58 249.73 437.95 249.73 447.14 265.73 437.95 281.73 419.58 281.73"/><polygon class="cls-2" points="419.58 313.73 410.39 297.73 419.58 281.73 437.95 281.73 447.14 297.73 437.95 313.73 419.58 313.73"/><polygon class="cls-2" points="447.17 297.73 437.98 281.73 447.17 265.73 465.54 265.73 474.73 281.73 465.54 297.73 447.17 297.73"/><polygon class="cls-2" points="447.17 329.73 437.98 313.73 447.17 297.73 465.54 297.73 474.73 313.73 465.54 329.73 447.17 329.73"/><polygon class="cls-2" points="392 329.73 382.81 313.73 392 297.73 410.37 297.73 419.56 313.73 410.37 329.73 392 329.73"/><polygon class="cls-2" points="392 361.73 382.81 345.73 392 329.73 410.37 329.73 419.56 345.73 410.37 361.73 392 361.73"/><polygon class="cls-2" points="419.58 345.73 410.39 329.73 419.58 313.73 437.95 313.73 447.14 329.73 437.95 345.73 419.58 345.73"/><polygon class="cls-2" points="419.58 377.73 410.39 361.73 419.58 345.73 437.95 345.73 447.14 361.73 437.95 377.73 419.58 377.73"/><polygon class="cls-2" points="336.83 233.73 327.64 217.73 336.83 201.73 355.2 201.73 364.39 217.73 355.2 233.73 336.83 233.73"/><polygon class="cls-2" points="309.24 249.73 300.06 233.73 309.24 217.73 327.62 217.73 336.8 233.73 327.62 249.73 309.24 249.73"/><polygon class="cls-2" points="309.24 345.73 300.06 329.73 309.24 313.73 327.62 313.73 336.8 329.73 327.62 345.73 309.24 345.73"/><polygon class="cls-2" points="309.24 377.73 300.06 361.73 309.24 345.73 327.62 345.73 336.8 361.73 327.62 377.73 309.24 377.73"/><polygon class="cls-2" points="336.83 361.73 327.64 345.73 336.83 329.73 355.2 329.73 364.39 345.73 355.2 361.73 336.83 361.73"/><polygon class="cls-2" points="226.49 361.73 217.3 345.73 226.49 329.73 244.86 329.73 254.05 345.73 244.86 361.73 226.49 361.73"/><polygon class="cls-2" points="254.07 377.73 244.89 361.73 254.07 345.73 272.45 345.73 281.63 361.73 272.45 377.73 254.07 377.73"/><polygon class="cls-5" points="1282.6 66.21 1245.2 87.68 1207.8 66.21 1207.8 23.27 1245.2 1.79 1282.6 23.27 1282.6 66.21"/><polygon class="cls-6" points="1155.23 294.49 1138.53 304.08 1121.83 294.49 1121.83 275.32 1138.53 265.73 1155.23 275.32 1155.23 294.49"/><polygon class="cls-2" points="169.49 356.73 160.3 340.73 169.49 324.73 187.86 324.73 197.05 340.73 187.86 356.73 169.49 356.73"/><polygon class="cls-7" points="100.49 196.73 91.3 180.73 100.49 164.73 118.86 164.73 128.05 180.73 118.86 196.73 100.49 196.73"/><polygon class="cls-4" points="10.44 53.64 1.25 37.64 10.44 21.64 28.81 21.64 38 37.64 28.81 53.64 10.44 53.64"/><polygon class="cls-5" points="102.98 465.71 65.58 487.19 28.19 465.71 28.19 422.77 65.58 401.3 102.98 422.77 102.98 465.71"/><polygon class="cls-6" points="119.08 434.65 102.38 444.24 85.68 434.65 85.68 415.48 102.38 405.89 119.08 415.48 119.08 434.65"/></svg>