<svg id="dat-data-logo" xmlns="http://www.w3.org/2000/svg" viewBox="0 0 240 240"><defs><style>.cls-1{fill:#2aca4b;}.cls-2{fill:#fff;}</style></defs><title>dat-data-logo</title><polygon class="cls-1" points="223.13 179 119.5 238.5 15.87 179 15.87 60 119.5 0.5 223.13 60 223.13 179"/><path class="cls-2" d="M75.08,76.86c4.82,0,7.72,1.75,10.7,4.56l-.53-6.66V59.93H98.15v61.48H87.62l-.88-4.3h-.35c-3.07,3.07-7.37,5.35-11.58,5.35C64,122.46,57,113.86,57,99.66S65.87,76.86,75.08,76.86Zm3.07,35.08c2.81,0,5-1.05,7.1-3.95V90.19a10.3,10.3,0,0,0-7.19-2.81c-4.12,0-7.8,3.86-7.8,12.1C70.26,108.08,73.15,111.94,78.15,111.94Z"/><path class="cls-2" d="M131.2,93.43c-.26-3.86-2.19-6.31-6.84-6.31-3.68,0-7.37,1.49-11.58,3.95l-4.56-8.51c5.52-3.33,11.75-5.7,18.59-5.7,11.14,0,17.28,6.31,17.28,19.64v24.91H133.57l-1-4.47h-.26c-3.68,3.24-7.8,5.52-12.72,5.52-7.89,0-12.89-5.79-12.89-13.15C106.74,100.18,114,95.18,131.2,93.43Zm-7.19,19c3,0,4.91-1.4,7.19-3.68v-7.63C122,102.38,119,105,119,108.34,119,111.15,120.94,112.46,124,112.46Z"/><path class="cls-2" d="M156.9,88h-6V78.43l6.66-.53,1.49-11.58h10.7V77.91h10.44V88H169.79v17.45c0,4.91,2.19,6.93,5.61,6.93a12.32,12.32,0,0,0,4.12-.88l2,9.38a31.32,31.32,0,0,1-9.65,1.58c-10.79,0-15-6.75-15-16.84V88Z"/><path class="cls-2" d="M64.21,136.7H73.1c11.87,0,17.54,7.48,17.54,19.12S85,175.23,73.16,175.23H64.21Zm8.59,36.25c10.47,0,15-7.07,15-17.13S83.28,139,72.81,139H66.9v34h5.91Z"/><path class="cls-2" d="M116.54,162H101.28l-4.5,13.21H94l13.62-38.53h2.69l13.57,38.53H121Zm-.76-2.28-2.46-7.19c-1.52-4.56-2.92-8.59-4.27-13.33h-.23c-1.34,4.74-2.69,8.77-4.27,13.33l-2.46,7.19Z"/><path class="cls-2" d="M135.31,139H123V136.7h27.19V139H138v36.19h-2.69V139Z"/><path class="cls-2" d="M171.85,162H156.59l-4.5,13.21h-2.75L163,136.7h2.69l13.56,38.53h-2.86Zm-.76-2.28-2.46-7.19c-1.52-4.56-2.92-8.59-4.27-13.33h-.23c-1.34,4.74-2.69,8.77-4.27,13.33l-2.46,7.19Z"/></svg>