<svg id="Layer_1" data-name="Layer 1" xmlns="http://www.w3.org/2000/svg" viewBox="0 0 2129.8 1534.9"><defs><style>.cls-1{fill:#007fff;}.cls-2{fill:#d8524e;}.cls-3{fill:#35b44f;}.cls-4{fill:#293648;}.cls-5{fill:#f9a5e4;}</style></defs><title>example-osm</title><path class="cls-1" d="M228,896.4q29.4-20.25,55.9-39.4c-29.9,4.3-60.7,8-92.2,9.6C130.5,883.4,66,891.4,0,888v165.7c7-5.2,14.1-10.3,21.1-15.4C93.8,986.6,166,939.6,228,896.4Z"/><path class="cls-1" d="M8.7,0H0V10.6C1.6,9,3.1,7.5,4.7,6,6,4,7.4,2,8.7,0Z"/><path class="cls-1" d="M384.9,309.9C415.4,373.8,434,440,439.5,523.4c14.9,60,23.6,128.1,26.1,203.2,64.3-41,125.5-68.5,190.6-75,88.9-9.7,160.6,24.2,181.2,57.8,22.3,34.5-14.3,69.8-59.1,100.4-43.5,33-89.8,63-94.4,109.3-6.4,45,35.5,109.9,131.5,179.8,97.1,68.8,153.5,97.1,175.2,114-21.2-83.1-25.7-159.8-4.1-146.3,11.9,5.6,34.2,47.6,61.9,88.5,3.6,5.4,7.3,10.8,11,16.1,25.8-30,45.1-53.5,61.4-68,26.7-25.1,45.3-25.7,66.5-20.1,21,5.8,44.6,17.7,78,22.3,1.4.3,2.8.5,4.2.7-2.6-32.1,1.8-61.5,17.5-71.8,25.7-17.8,56.1-13.2,93.3-35.3,36.2-19.5,79.2-64.9,104.5-103,14-21.1,28.9-48.2,43.7-76.1-50.4-16.9-103.4-32-139-44.5-63.6-17.5-86.4-29.4-99.9-40.4-13.5-17.3-41.7-35.4-78.3-79-17.5-22.5-41-52.2-29.1-98.4,14.4-45.4,61.9-111,248.1-187.6,150.7-62.7,348.5-108.5,543.3-134.1,51.5-7.6,103.8-14,156.1-19.3V0H1849.1c-40.8,13.9-82.7,27.1-121.9,37.5-62.7,16.9-120.9,25.9-173.3,31.2-52.5,5.8-99.6,7.8-139.9,20.7-59.3,17.6-147.6,109.1-221.2,268.3-36.1,77.2-65.4,169.7-85.3,249.6-20.7,79.5-31.8,146.3-54.7,163.9-43.3,34.5-129.7-143.9-177.6-322-50.7-181.1-62-354.3-105.6-379.9-27-16.6-67.7-3.7-107.7,34.2C621.8,141,583.5,204.1,560.7,277.4c-23.3,73.7-29.4,158-25.5,222.2,3.2,63.5,13.8,107,3,83.7-9.3-23.1-38-105.1-54.8-212.1-17.7-106.8-23.6-238.5-8.3-356.9.6-4.8,1.2-9.6,1.9-14.4H204.6c.8.9,1.5,1.9,2.3,2.8C260,44.3,320.6,135.1,384.9,309.9Z"/><path class="cls-1" d="M2129.8,904.3V819.9c-8.5,10.5-16.7,21-24.7,31.6C2113.8,869,2122.1,886.9,2129.8,904.3Z"/><path class="cls-2" d="M483.5,371.3c16.8,107,45.5,189,54.8,212.1,10.7,23.3.2-20.2-3-83.7-3.9-64.2,2.2-148.6,25.5-222.2,22.8-73.4,61.1-136.4,101.2-173.9,40-38,80.8-50.8,107.7-34.2C813.2,95,824.5,268.2,875.5,449.3c47.8,178,134.2,356.5,177.6,322,22.9-17.6,34-84.4,54.7-163.9,19.8-79.9,49.2-172.4,85.3-249.6C1266.5,198.4,1354.8,107,1414,89.4c40.4-12.8,87.4-14.9,139.9-20.7,52.5-5.3,110.6-14.4,173.4-31.2,39.3-10.4,81.2-23.6,121.9-37.5H477l-1.8,14.4C459.9,132.8,465.7,264.5,483.5,371.3Z"/><path class="cls-3" d="M191.8,866.7c31.5-1.7,62.3-5.3,92.2-9.6,38.9-28,73.7-54.1,106.2-78,25.9-19.2,50.9-36.8,75.4-52.5-2.5-75.1-11.2-143.2-26.1-203.2C434,440,415.4,373.8,384.9,309.9,320.6,135.1,260,44.3,206.9,2.8c-.8-.9-1.5-1.9-2.3-2.8H8.7C7.4,2,6,4,4.7,6,3.1,7.5,1.6,9,0,10.6V888C66,891.4,130.5,883.4,191.8,866.7Z"/><path class="cls-4" d="M1187.4,1083.2c-21.2-5.6-39.8-5-66.5,20.1-16.3,14.5-35.6,38-61.4,68,25.1,35.7,53.5,68.7,81.1,86.3,63.3,45.2,121.1,9.6,136.5-19.3,17.9-33.6,2-64.7-4.1-106.4a252.6,252.6,0,0,1-3.3-25.6c-1.4-.2-2.8-.5-4.2-.7C1231.9,1100.9,1208.4,1089,1187.4,1083.2Z"/><path class="cls-4" d="M1020.8,1304.2c-12.1-28.4-22.3-60.2-30.2-91.1-21.7-17-78.1-45.3-175.2-114.1-96-69.8-137.8-134.7-131.5-179.8,4.6-46.3,50.9-76.3,94.4-109.3,44.8-30.6,81.4-66,59.1-100.4-20.6-33.6-92.3-67.5-181.2-57.8-65.17,6.5-126.34,34.07-190.5,74.94v0c-24.6,15.7-49.6,33.3-75.4,52.5-32.6,23.9-67.4,50-106.3,78,65.36-9.39,126.23-21.68,181-22v.1c-54.8.3-115.7,12.6-181.1,22-17.7,12.8-36.3,26-55.9,39.4-62,43.1-134.3,90.1-206.9,141.9-7,5.1-14.1,10.2-21.1,15.3V1535H667.3l1.9-.7.8-.3a4.1,4.1,0,0,1-.1,1.1h355.2a660.28,660.28,0,0,1-69.5-54.1c-57.6-49.7-116.2-119.1-160.4-188.5-44.2-68.4-73.2-136.4-74.6-160.2-3.5-49.8,101.5,137.5,198.7,233.3,48.7,51.3,94.2,83.8,127.9,99.7,33.8,16.1,56.2,15.8,61.9,8.7C1118.5,1461.8,1062.7,1412.6,1020.8,1304.2Z"/><path class="cls-5" d="M1059.5,1171.2c-3.8-5.3-7.4-10.7-11-16.1-27.7-40.9-50-82.9-61.9-88.5-21.5-13.5-17.1,63.2,4.1,146.3l.1.1v.1l-.1-.1c7.9,31,18.1,62.8,30.2,91.1,41.9,108.3,97.7,157.6,88.3,169.8-5.7,7.1-28,7.5-61.9-8.7-33.7-15.8-79.2-48.3-127.9-99.7-97.2-95.7-202.2-283.1-198.7-233.3,1.4,23.8,30.3,91.8,74.6,160.2,44.1,69.4,102.8,138.8,160.4,188.5a615.67,615.67,0,0,0,69.6,53.9h739l.1.1H2130V904.3c-7.7-17.4-16-35.2-24.7-52.8q-21.9,28.65-40.2,57.5c-43.2,56.9-62.5,105.2-77.8,145.3-14.6,40-24.4,72.2-33.6,93.6-24.9,68.2-49.8,98.2-110.4,62.6,41.1-92.4,73-171.2,30.6-235.3-37.9-54.1-143.1-98-278.4-130.4-20.3-8.6-43.3-16.9-66.8-24.8-14.9,28-29.8,55-43.7,76.1-25.3,38.1-68.2,83.4-104.5,103-37.2,22.1-67.7,17.5-93.3,35.3-15.79,10.29-20.09,39.65-17.51,71.72l-.09,0c.7,8.4,1.8,17.1,3.3,25.6,6.2,41.9,22.1,73,4.2,106.6-15.4,28.8-73.2,64.4-136.5,19.3-27.6-17.7-56-50.6-81.1-86.3"/><path class="cls-3" d="M2105.2,851.5c8-10.6,16.2-21.1,24.7-31.6V216.7c-52.4,5.3-104.7,11.7-156.2,19.3-194.7,25.5-392.5,71.4-543.2,134.2-186.1,76.6-233.6,142.2-248.1,187.6-11.9,46.2,11.6,75.9,29.1,98.4,36.6,43.5,64.8,61.7,78.3,79,13.5,11,36.3,23,99.9,40.4,35.58,12.49,88.54,27.58,138.91,44.47l0,0c23.5,7.9,46.5,16.2,66.8,24.8,135.4,32.4,240.6,76.3,278.5,130.4,42.4,64.1,10.5,142.9-30.6,235.3,60.7,35.6,85.5,5.6,110.4-62.6,9.2-21.4,19-53.6,33.6-93.6,15.3-40.1,34.6-88.4,77.8-145.3,12.2-19.2,25.6-38.5,40-57.6"/></svg>