<svg id="Layer_1" data-name="Layer 1" xmlns="http://www.w3.org/2000/svg" viewBox="0 0 559.84 284.77"><defs><style>.cls-1{fill:#fff;}.cls-2{fill:#fff;}.cls-3{fill:#fff;}</style></defs><title>bear-brown</title><path class="cls-1" d="M391.57,13,251,17.26,363.1,187.76Z"/><path class="cls-1" d="M511.61,112c-5.79-10.39-11.06-20.26-16.86-29.82-.87-1.43-4.31-2.18-6.4-1.94-15.49,1.84-30.94,4-46.41,6.08q-25.21,3.38-50.42,6.74c-3,.39-5.3.7-5.91,4.6-4.74,30.24-9.74,60.45-14.64,90.67a8.06,8.06,0,0,0,.46,1.85Z"/><path class="cls-1" d="M248.39,28.77V33c0,40.13.07,80.25-.1,120.38,0,4,1.16,5.7,5.13,6.87,33,9.74,66,19.73,98.94,29.65l3.71,1.1L249.33,28.48Z"/><path class="cls-1" d="M150.55,121.36c-.94-1.77-1.56-3.09-2.31-4.34-14.67-24.37-29.39-48.71-44-73.12-1.64-2.74-3.42-3.67-6.73-3.9-13.81-.92-26.85,3.06-40.11,5.58a7.34,7.34,0,0,0-3.88,2.85C47,57.15,40.67,66,34.12,74.73c-1.58,2.11-1.36,3.58,0,5.7,10.14,15.77,20.05,31.69,30.29,47.39A7.16,7.16,0,0,0,70,130.47C96.61,127.62,123.19,124.5,150.55,121.36Z"/><path class="cls-2" d="M392.59,278.75l109.49-152.5c-2.38,1.09-3.64,1.57-4.79,2.21q-61.66,34.45-123.35,68.84c-3.72,2.06-4.33,4-3.17,7.85,7,23.39,13.67,46.87,20.47,70.32C391.51,276.38,392,277.23,392.59,278.75Z"/><path class="cls-3" d="M164,117.37l60.28-23.86c3.92-1.55,7.78-3.32,11.79-4.62,3.11-1,4-2.75,3.94-5.87q-.21-31.46,0-62.92c0-3.08-.91-4.77-3.82-6.08-9.83-4.43-19.52-9.14-29.85-14Z"/><path class="cls-1" d="M109.42,37.94l47,78L198,.78c-6.5,1.68-12,3.06-17.42,4.51-7.5,2-15,3.91-22.47,6.17a53.34,53.34,0,0,0-10.65,4.49C134.86,23.07,122.39,30.42,109.42,37.94Z"/><path class="cls-1" d="M163.29,126.24C169.66,142,175.68,157.1,182,172.1c.52,1.23,2.89,2.27,4.49,2.42,17,1.52,34.09,2.84,51.14,4.19a14.08,14.08,0,0,0,2.36-.27V96.33Z"/><path class="cls-2" d="M387.8,85.84l96.69-13L399.21,15.75Z"/><path class="cls-2" d="M465.67,199.4c1.43,1.64,2.22,2.67,3.14,3.58q25.8,25.59,51.58,51.19c2.13,2.13,4,2.67,7.15,2.09,9.47-1.79,19-3,28.57-4.5,1.15-.18,2.26-.56,3.74-.94a27.51,27.51,0,0,0-1.09-2.81c-9.08-17.3-18.21-34.57-27.23-51.9-1.3-2.5-2.56-3.58-5.8-3.2C506.06,195.22,486.35,197.2,465.67,199.4Z"/><path class="cls-1" d="M257.49,238.25,224.76,216.1c-3.71,11.19-8.24,21.63-10.52,32.52-2.75,13.15-9.57,21.32-22.52,25.65-5.14,1.72-9.43,5.89-14.11,8.95l.67,1.54c13.48,0,27,0,40.44-.08a5,5,0,0,0,3.24-1.89C233.7,268.16,245.37,253.47,257.49,238.25Z"/><path class="cls-1" d="M527.4,184.42l-13.14-60.94-48.92,67.88Z"/><path class="cls-2" d="M248.44,166.87c3,16.12-4.92,26.77-14.73,36.67-1.4,1.42-2.55,3.08-4.24,5.16l33.3,22.19,20.44-53.59Z"/><path class="cls-1" d="M179.13,184.27,139,228.89c9.09,2.41,17.38,4.63,25.69,6.76a4.34,4.34,0,0,0,2.44-.38c12.53-5,25-10,38.22-15.28Z"/><path class="cls-1" d="M55.46,129.86l-22.64-35L0,118.81c6.13,5.64,11.74,10.91,17.51,16a5.06,5.06,0,0,0,3.69.95C32.37,133.93,43.51,131.94,55.46,129.86Z"/><path class="cls-2" d="M188.12,182.91l24.11,32.34L236.34,187Z"/><path class="cls-1" d="M384,279.09l-18-62.68c-2.25,13.73-3.73,26.15-6.49,38.28-1.61,7.09.78,10.55,6.82,13.57C372.12,271.17,377.45,275,384,279.09Z"/><path class="cls-1" d="M148.37,274.2c4.55-9.92,13.72-16.16,13.15-27.34-.13-2.61-.88-3.91-3.41-4.49-7.19-1.66-14.37-3.41-22.45-5.34,1.24,10.13,1.86,19.87,3.92,29.31C140.21,269.19,144.84,271.19,148.37,274.2Z"/><path class="cls-1" d="M509.16,283.8c8.33,0,17.27.07,26.21-.09a5.21,5.21,0,0,0,3.23-2c5.86-7.09,11.61-14.27,18.25-22.48-11.22,1.81-21.26,3.39-31.27,5.11-.81.14-1.55,1.17-2.16,1.92C518.72,272,514.05,277.77,509.16,283.8Z"/><path class="cls-1" d="M516,104.51c7.08-10.76,10.75-21.45,4.18-33.94l-19.08,7Z"/><path class="cls-1" d="M377.71,284.5c-8.06-5-15-9.35-22-13.63a3.19,3.19,0,0,0-2.33-.58c-8.31,3.61-18,5-23.28,14.21Z"/><path class="cls-2" d="M52.46,20.43,56,38.38,77,33.88c-2.06-6.31-4.58-10.8-11.77-11C61.24,22.79,57.31,21.41,52.46,20.43Z"/></svg>
