<svg id="Layer_1" data-name="Layer 1" xmlns="http://www.w3.org/2000/svg" viewBox="0 0 240 240">
  <defs>
    <style>
      .cls-1 {
        fill: none;
        stroke: #2ACA4B;
        stroke-miterlimit: 10;
        stroke-width: 3px;
      }

      .cls-2 {
        fill: #293648;
      }
    </style>
  </defs>
  <title>logo-dat-desktop-dark</title>
  <polygon class="cls-1" points="220.15 177.5 120 235 19.85 177.5 19.85 62.5 120 5 220.15 62.5 220.15 177.5"/>
  <g>
    <path class="cls-2" d="M73.87,85.76H84.42c12.13,0,19.35,6.55,19.35,19.65s-7.22,20-19,20H73.87Zm10.07,34c8,0,12.61-4.55,12.61-14.31S91.94,91.46,83.94,91.46h-3v28.26Z"/>
    <path class="cls-2" d="M130.48,114.69H117.2l-3.09,10.73h-7.22l13-39.66h8.25L141,125.43h-7.46Zm-1.58-5.52-1.4-4.85c-1.21-4.18-2.43-8.73-3.58-13.1h-.24c-1.09,4.43-2.24,8.91-3.52,13.1l-1.4,4.85Z"/>
    <path class="cls-2" d="M151.65,91.71H140.19V85.76h29.9v5.94h-11.4v33.72h-7Z"/>
  </g>
  <g>
    <path class="cls-2" d="M55.83,145.76h4.72c5.43,0,8.65,2.93,8.65,8.79s-3.23,9-8.49,9H55.83ZM60.34,161c3.58,0,5.64-2,5.64-6.4s-2.06-6.24-5.64-6.24H59V161Z"/>
    <path class="cls-2" d="M76.7,145.76H87.36v2.66H79.84V153h6.37v2.66H79.84v5.24h7.79v2.66H76.7Z"/>
    <path class="cls-2" d="M95.92,159.08a7.07,7.07,0,0,0,4.64,2c2,0,3.09-.9,3.09-2.28s-1.14-1.93-2.77-2.6l-2.41-1.06c-1.76-.73-3.58-2.12-3.58-4.72,0-2.82,2.5-5,5.94-5a7.85,7.85,0,0,1,5.48,2.25l-1.63,2a5.73,5.73,0,0,0-3.85-1.52c-1.68,0-2.77.79-2.77,2.09s1.36,1.9,2.82,2.5l2.39,1c2.12.9,3.58,2.22,3.58,4.8,0,2.88-2.39,5.26-6.37,5.26a9.13,9.13,0,0,1-6.37-2.6Z"/>
    <path class="cls-2" d="M114.06,145.76h3.15v8.06h.08l6.32-8.06h3.47l-5.45,6.92L128,163.5h-3.47l-4.77-8.35-2.55,3.17v5.18h-3.15Z"/>
    <path class="cls-2" d="M138.3,148.42h-5.13v-2.66h13.37v2.66h-5.1V163.5H138.3Z"/>
    <path class="cls-2" d="M152.13,154.55c0-5.72,3.2-9.12,7.84-9.12s7.81,3.39,7.81,9.12-3.2,9.28-7.81,9.28S152.13,160.3,152.13,154.55Zm12.42,0c0-4-1.82-6.37-4.58-6.37s-4.61,2.41-4.61,6.37,1.82,6.54,4.61,6.54S164.55,158.54,164.55,154.55Z"/>
    <path class="cls-2" d="M175.3,145.76h6c3.88,0,6.73,1.36,6.73,5.48,0,3.93-2.93,5.75-6.73,5.75h-2.82v6.51H175.3Zm5.7,8.71c2.66,0,3.91-1.06,3.91-3.23s-1.33-3-3.91-3h-2.55v6.19Z"/>
  </g>
</svg>
