<?xml version="1.0" encoding="utf-8"?>
<!-- Generator: Adobe Illustrator 21.0.0, SVG Export Plug-In . SVG Version: 6.00 Build 0)  -->
<svg version="1.1" id="logo-dat-desktop" xmlns="http://www.w3.org/2000/svg" xmlns:xlink="http://www.w3.org/1999/xlink" x="0px"
	 y="0px" viewBox="0 0 212 244" style="enable-background:new 0 0 212 244;" xml:space="preserve">
<style type="text/css">
	.st0{fill:#293648;stroke:#35B44F;stroke-width:3;stroke-miterlimit:10;}
	.st1{fill:#FFFFFF;}
</style>
<title>logo-dat-desktop</title>
<polygon class="st0" points="210.5,182 106,242 1.5,182 1.5,62 106,2 210.5,62 "/>
<path class="st1" d="M57.9,86.3h11c12.7,0,20.2,6.8,20.2,20.5s-7.5,20.9-19.8,20.9H57.9V86.3z M68.4,121.7c8.3,0,13.2-4.8,13.2-14.9
	s-4.8-14.6-13.2-14.6h-3.2v29.5L68.4,121.7z"/>
<path class="st1" d="M116.9,116.5h-13.8l-3.2,11.2h-7.5l13.5-41.4h8.6l13.5,41.4h-7.8L116.9,116.5z M115.3,110.7l-1.5-5.1
	c-1.3-4.4-2.5-9.1-3.7-13.7h-0.2c-1.1,4.6-2.3,9.3-3.7,13.7l-1.5,5.1H115.3z"/>
<path class="st1" d="M139,92.5h-12v-6.2h31.2v6.2h-11.9v35.2H139V92.5z"/>
<path class="st1" d="M39,148.9h5c5.7,0,9,3.1,9,9.2s-3.4,9.3-8.9,9.3H39V148.9z M43.7,164.7c3.7,0,5.9-2.1,5.9-6.7s-2.2-6.5-5.9-6.5
	h-1.4v13.2L43.7,164.7z"/>
<path class="st1" d="M60.8,148.9h11.1v2.8h-7.8v4.7h6.7v2.8h-6.7v5.5h8.1v2.8H60.8V148.9z"/>
<path class="st1" d="M80.9,162.8c1.3,1.3,3,2,4.8,2.1c2.1,0,3.2-0.9,3.2-2.4s-1.2-2-2.9-2.7l-2.5-1.1c-1.8-0.8-3.7-2.2-3.7-4.9
	c0-2.9,2.6-5.2,6.2-5.2c2.1,0,4.2,0.8,5.7,2.4L90,153c-1.1-1-2.5-1.6-4-1.6c-1.8,0-2.9,0.8-2.9,2.2s1.4,2,2.9,2.6l2.5,1
	c2.2,0.9,3.7,2.3,3.7,5c0,3-2.5,5.5-6.7,5.5c-2.5,0-4.9-1-6.6-2.7L80.9,162.8z"/>
<path class="st1" d="M99.8,148.9h3.3v8.4h0.1l6.6-8.4h3.6l-5.7,7.2l6.7,11.3h-3.6l-5-8.7l-2.6,3.3v5.4h-3.3V148.9z"/>
<path class="st1" d="M125.1,151.7h-5.3v-2.8h14v2.8h-5.3v15.7h-3.3V151.7z"/>
<path class="st1" d="M139.5,158.1c0-6,3.3-9.5,8.2-9.5s8.1,3.5,8.1,9.5s-3.3,9.7-8.1,9.7S139.5,164.1,139.5,158.1z M152.5,158.1
	c0-4.1-1.9-6.6-4.8-6.6s-4.8,2.5-4.8,6.6s1.9,6.8,4.8,6.8S152.5,162.2,152.5,158.1L152.5,158.1z"/>
<path class="st1" d="M163.7,148.9h6.2c4,0,7,1.4,7,5.7c0,4.1-3.1,6-7,6H167v6.8h-3.3L163.7,148.9z M169.7,158c2.8,0,4.1-1.1,4.1-3.4
	s-1.4-3.1-4.1-3.1H167v6.5L169.7,158z"/>
</svg>
